<?xml version="1.0" standalone="no"?>
<!DOCTYPE svg PUBLIC "-//W3C//DTD SVG 20010904//EN"
 "http://www.w3.org/TR/2001/REC-SVG-20010904/DTD/svg10.dtd">
<svg version="1.0" xmlns="http://www.w3.org/2000/svg"
 width="1120.000000pt" height="1120.000000pt" viewBox="0 0 1120.000000 1120.000000"
 preserveAspectRatio="xMidYMid meet">
<metadata>
Created by potrace 1.14, written by Peter Selinger 2001-2017
</metadata>
<g transform="translate(0.000000,1120.000000) scale(0.100000,-0.100000)"
fill="#000000" stroke="none">
<path d="M4885 10708 l0 -493 -335 -2 c-184 -1 -346 -2 -360 -2 l-25 -1 0
-247 c0 -213 2 -249 15 -254 12 -4 1191 -5 1210 0 4 1 4 1240 0 1464 l0 27
-253 0 -252 0 0 -492z"/>
<path d="M5631 11029 c0 -146 3 -173 17 -188 9 -10 60 -64 112 -121 52 -57
106 -115 120 -130 14 -15 66 -71 115 -125 50 -54 101 -110 115 -125 14 -15 45
-51 70 -80 25 -29 60 -69 78 -87 64 -64 67 -64 -378 -68 -129 -1 -238 -3 -241
-4 -9 -2 -10 -391 -1 -392 24 -4 1395 -3 1401 1 4 3 7 81 7 175 l0 170 -35 39
c-20 21 -52 56 -71 76 -55 58 -234 251 -269 290 -47 51 -210 226 -253 272 -21
22 -38 43 -38 48 0 5 55 9 123 10 262 3 469 9 474 14 3 3 14 1 24 -4 17 -9 18
1 18 195 l0 205 -694 0 -694 0 0 -171z"/>
<path d="M1677 9012 c-20 -2 -27 -8 -23 -18 3 -8 -1 -14 -10 -14 -16 0 -16
-25 11 -315 2 -27 7 -84 11 -125 3 -41 8 -97 10 -125 3 -27 6 -75 9 -105 2
-30 6 -77 9 -105 3 -27 8 -86 11 -130 3 -44 8 -96 10 -116 3 -19 7 -67 10
-105 2 -38 7 -94 10 -124 3 -30 8 -80 11 -110 4 -52 7 -85 18 -205 3 -27 8
-84 11 -125 4 -41 8 -96 9 -122 0 -27 3 -48 6 -48 3 0 5 -19 6 -43 0 -37 6
-99 20 -247 2 -25 6 -72 9 -105 3 -33 7 -82 10 -110 11 -112 17 -183 20 -235
2 -30 6 -77 10 -105 3 -27 7 -77 10 -110 3 -33 7 -80 10 -105 5 -51 13 -144
20 -239 3 -36 8 -90 11 -120 7 -69 10 -105 18 -206 4 -44 9 -102 12 -130 2
-27 6 -70 8 -95 2 -25 7 -76 11 -115 4 -38 9 -88 10 -110 3 -43 14 -164 20
-230 4 -39 12 -127 21 -230 3 -27 6 -77 9 -110 4 -58 10 -119 21 -215 5 -51
12 -129 20 -245 3 -44 10 -86 16 -92 7 -9 7 -13 -1 -13 -7 0 -10 -3 -8 -7 5
-7 9 -44 22 -198 2 -22 7 -70 10 -108 4 -37 8 -92 9 -121 2 -29 5 -57 8 -62 3
-5 6 -35 7 -67 3 -62 7 -112 16 -197 3 -30 8 -82 11 -115 8 -101 12 -138 18
-205 3 -36 9 -92 11 -125 3 -33 8 -85 11 -115 3 -30 7 -77 9 -105 2 -27 7 -77
10 -110 3 -33 8 -85 11 -115 5 -59 11 -121 19 -210 3 -30 7 -82 9 -115 3 -33
7 -76 10 -95 3 -19 8 -71 11 -115 3 -44 8 -96 10 -115 2 -19 6 -66 9 -105 9
-101 24 -250 26 -250 0 0 3 -31 6 -70 9 -121 13 -159 18 -185 2 -14 7 -43 11
-65 3 -21 11 -42 17 -46 6 -4 72 -24 147 -44 75 -20 147 -41 161 -46 14 -5 37
-12 51 -14 14 -3 54 -14 89 -25 34 -11 71 -20 81 -20 10 0 21 -5 24 -10 4 -6
11 -8 16 -5 5 4 15 3 22 -2 6 -4 21 -9 31 -10 11 -2 25 -8 33 -14 7 -6 13 -9
13 -6 0 3 24 -1 53 -10 28 -8 77 -21 107 -29 30 -8 70 -19 88 -24 38 -12 73
-21 172 -49 226 -62 361 -100 369 -105 5 -3 26 -8 47 -12 22 -3 46 -9 54 -14
12 -6 73 -22 133 -36 4 -1 8 -2 10 -4 1 -1 9 -3 17 -5 8 -2 42 -11 75 -21 33
-9 67 -18 75 -20 8 -2 80 -22 160 -44 120 -35 197 -55 275 -75 6 -1 17 -4 25
-7 8 -3 53 -16 100 -28 47 -13 130 -35 185 -50 89 -25 283 -76 324 -85 9 -2
80 -21 159 -41 l142 -36 143 37 c78 20 147 37 152 39 6 1 16 5 23 9 6 5 12 6
12 3 0 -3 24 2 53 11 28 9 59 17 67 18 8 1 22 5 30 8 19 8 418 117 439 120 9
1 21 5 26 8 6 4 28 10 50 14 22 4 44 10 50 13 5 4 15 7 20 9 33 7 61 14 160
42 61 17 119 34 130 36 79 19 151 42 157 50 4 5 8 7 8 3 0 -4 20 -1 45 6 25 8
45 12 45 10 0 -3 8 0 18 5 11 6 30 12 43 15 13 3 58 14 99 26 41 12 86 24 99
26 13 3 32 9 41 14 9 5 28 11 41 14 13 2 74 18 134 36 61 17 117 33 125 34 8
2 40 11 70 20 30 9 58 16 62 17 4 0 20 4 35 9 100 30 204 60 224 64 13 2 46
12 73 21 26 9 56 18 65 20 9 1 36 9 61 16 25 7 48 13 53 15 4 1 9 3 12 4 6 3
6 3 55 14 19 5 40 11 45 15 6 3 12 6 15 6 18 2 117 29 125 34 6 3 15 6 22 7 7
1 34 9 61 18 46 16 48 18 50 55 2 21 5 48 7 60 2 13 7 52 10 89 3 37 7 87 10
112 2 25 7 74 11 110 4 36 8 79 10 95 1 17 6 66 9 110 4 44 8 91 10 105 4 33
13 129 20 205 16 181 25 257 33 269 3 5 -1 6 -8 1 -9 -6 -11 -4 -5 4 4 7 9 29
10 49 2 20 4 37 5 37 1 0 3 20 4 45 9 125 19 227 22 245 2 11 7 52 10 90 8
106 12 154 19 215 5 56 12 123 20 220 3 30 7 79 10 108 13 138 16 170 20 212
3 25 7 74 10 110 3 36 8 85 11 110 5 45 12 135 19 220 1 25 6 70 9 100 9 81
15 146 22 230 3 41 8 91 10 110 2 19 6 64 9 100 2 36 7 83 10 105 3 22 7 69
10 105 3 36 8 85 10 110 2 25 7 74 10 110 3 36 7 85 10 110 2 25 6 72 9 105 3
33 8 84 11 113 4 29 8 81 10 115 2 34 6 78 9 97 9 68 20 206 20 257 1 29 3 53
6 53 3 0 5 12 6 28 0 15 4 59 8 97 13 142 19 211 20 252 1 24 3 43 6 43 3 0 6
17 6 38 0 40 14 197 29 327 3 28 8 77 10 110 2 33 6 89 10 125 9 101 14 149
20 230 4 41 8 91 10 110 2 19 6 69 10 110 3 41 8 95 10 120 2 25 7 74 10 110
3 36 8 88 11 115 3 28 7 70 9 95 4 54 14 168 20 230 2 25 7 79 10 120 6 76 9
106 20 215 3 33 8 89 10 125 3 36 7 85 9 110 3 25 7 77 11 115 3 39 8 93 10
120 3 28 8 79 10 115 3 36 7 90 10 120 15 165 15 193 3 221 -7 16 -20 29 -28
30 -40 3 -7839 4 -7863 1z"/>
</g>
</svg>
